<mxfile host="app.diagrams.net" agent="Mozilla/5.0 (X11; Ubuntu; Linux x86_64; rv:135.0) Gecko/20100101 Firefox/135.0" version="26.0.16">
  <diagram name="Page-1" id="Hwkt8vP_BsYERNc1rVaC">
    <mxGraphModel dx="800" dy="965" grid="1" gridSize="10" guides="1" tooltips="1" connect="1" arrows="1" fold="1" page="1" pageScale="1" pageWidth="850" pageHeight="1100" math="0" shadow="0">
      <root>
        <mxCell id="0" />
        <mxCell id="1" parent="0" />
        <mxCell id="fQJ9Ryaz9KeabCS2UVXC-16" value="User&#39;s Laptop Computer" style="swimlane;startSize=20;horizontal=1;containerType=tree;newEdgeStyle={&quot;edgeStyle&quot;:&quot;elbowEdgeStyle&quot;,&quot;startArrow&quot;:&quot;none&quot;,&quot;endArrow&quot;:&quot;none&quot;};fillColor=#99CCFF;" parent="1" vertex="1">
          <mxGeometry x="300" y="170" width="220" height="170" as="geometry" />
        </mxCell>
        <mxCell id="fQJ9Ryaz9KeabCS2UVXC-25" value="&lt;b&gt;Disp_camera&lt;/b&gt;&lt;div&gt;&lt;b&gt;&lt;br&gt;&lt;/b&gt;&lt;/div&gt;&lt;div&gt;Receives images and displays them&amp;nbsp;&lt;/div&gt;" style="ellipse;whiteSpace=wrap;html=1;" parent="fQJ9Ryaz9KeabCS2UVXC-16" vertex="1">
          <mxGeometry x="20" y="35" width="180" height="110" as="geometry" />
        </mxCell>
        <mxCell id="fQJ9Ryaz9KeabCS2UVXC-24" value="Turtlebot3" style="swimlane;startSize=20;horizontal=1;containerType=tree;newEdgeStyle={&quot;edgeStyle&quot;:&quot;elbowEdgeStyle&quot;,&quot;startArrow&quot;:&quot;none&quot;,&quot;endArrow&quot;:&quot;none&quot;};fillColor=#99CCFF;" parent="1" vertex="1">
          <mxGeometry x="710" y="150" width="850" height="480" as="geometry" />
        </mxCell>
        <mxCell id="zRsS4sIv_-Lq1t2ImjYy-5" style="edgeStyle=orthogonalEdgeStyle;rounded=0;orthogonalLoop=1;jettySize=auto;html=1;exitX=1;exitY=1;exitDx=0;exitDy=0;entryX=0.5;entryY=1;entryDx=0;entryDy=0;" parent="fQJ9Ryaz9KeabCS2UVXC-24" source="fQJ9Ryaz9KeabCS2UVXC-27" target="fQJ9Ryaz9KeabCS2UVXC-29" edge="1">
          <mxGeometry relative="1" as="geometry">
            <Array as="points">
              <mxPoint x="800" y="160" />
              <mxPoint x="800" y="470" />
              <mxPoint x="165" y="470" />
            </Array>
          </mxGeometry>
        </mxCell>
        <mxCell id="zRsS4sIv_-Lq1t2ImjYy-6" value="Message type: sensor_msgs/LaserScan&lt;br&gt;Topic Name: /scan" style="edgeLabel;html=1;align=center;verticalAlign=middle;resizable=0;points=[];" parent="zRsS4sIv_-Lq1t2ImjYy-5" vertex="1" connectable="0">
          <mxGeometry x="-0.5925" y="3" relative="1" as="geometry">
            <mxPoint x="-53" y="158" as="offset" />
          </mxGeometry>
        </mxCell>
        <mxCell id="fQJ9Ryaz9KeabCS2UVXC-27" value="&lt;b&gt;&amp;nbsp;Camera_robot_bringup&lt;/b&gt;&lt;div&gt;&lt;b&gt;&lt;br&gt;&lt;/b&gt;&lt;/div&gt;&lt;div&gt;Enables the sensors of the robot and publishes their values. Enables the motors of the robot and makes them command-able&lt;/div&gt;" style="ellipse;whiteSpace=wrap;html=1;" parent="fQJ9Ryaz9KeabCS2UVXC-24" vertex="1">
          <mxGeometry x="510" y="40" width="260" height="140" as="geometry" />
        </mxCell>
        <mxCell id="fQJ9Ryaz9KeabCS2UVXC-29" value="&lt;b&gt;getObjectRange&lt;/b&gt;&lt;div&gt;&lt;b&gt;&lt;br&gt;&lt;/b&gt;&lt;/div&gt;&lt;div&gt;Takes in angular coordinates and Lidar information. Maps the given coordinates to Lidar information to determine the relative distance to an obstacle. Publishes both the distance and angle to the object&lt;/div&gt;" style="ellipse;whiteSpace=wrap;html=1;" parent="fQJ9Ryaz9KeabCS2UVXC-24" vertex="1">
          <mxGeometry x="12.5" y="295" width="305" height="160" as="geometry" />
        </mxCell>
        <mxCell id="fQJ9Ryaz9KeabCS2UVXC-30" value="&lt;b&gt;goToGoal&lt;/b&gt;&lt;div&gt;&lt;br&gt;&lt;/div&gt;&lt;div&gt;Reads in coordinates to desired location, odometer information, and moves around obstacles as determined by getObjectRange.&lt;/div&gt;" style="ellipse;whiteSpace=wrap;html=1;" parent="fQJ9Ryaz9KeabCS2UVXC-24" vertex="1">
          <mxGeometry x="521.25" y="302.5" width="237.5" height="145" as="geometry" />
        </mxCell>
        <mxCell id="fQJ9Ryaz9KeabCS2UVXC-28" value="&lt;b&gt;detect_object&lt;/b&gt;&lt;div&gt;&lt;b&gt;&lt;br&gt;&lt;/b&gt;&lt;/div&gt;&lt;div&gt;Takes in images and outputs an image with a designated color outlined and angular coordinates.&lt;/div&gt;" style="ellipse;whiteSpace=wrap;html=1;" parent="fQJ9Ryaz9KeabCS2UVXC-24" vertex="1">
          <mxGeometry x="45" y="40" width="240" height="140" as="geometry" />
        </mxCell>
        <mxCell id="fQJ9Ryaz9KeabCS2UVXC-40" value="" style="endArrow=classic;html=1;rounded=0;exitX=0.5;exitY=0;exitDx=0;exitDy=0;entryX=0.5;entryY=1;entryDx=0;entryDy=0;" parent="fQJ9Ryaz9KeabCS2UVXC-24" source="fQJ9Ryaz9KeabCS2UVXC-30" target="fQJ9Ryaz9KeabCS2UVXC-27" edge="1">
          <mxGeometry width="50" height="50" relative="1" as="geometry">
            <mxPoint x="310" y="230" as="sourcePoint" />
            <mxPoint x="410" y="210" as="targetPoint" />
          </mxGeometry>
        </mxCell>
        <mxCell id="fQJ9Ryaz9KeabCS2UVXC-41" value="" style="endArrow=classic;html=1;rounded=0;exitX=1;exitY=0.5;exitDx=0;exitDy=0;entryX=0;entryY=0.5;entryDx=0;entryDy=0;" parent="fQJ9Ryaz9KeabCS2UVXC-24" source="fQJ9Ryaz9KeabCS2UVXC-29" target="fQJ9Ryaz9KeabCS2UVXC-30" edge="1">
          <mxGeometry width="50" height="50" relative="1" as="geometry">
            <mxPoint x="310" y="260" as="sourcePoint" />
            <mxPoint x="330" y="260" as="targetPoint" />
          </mxGeometry>
        </mxCell>
        <mxCell id="fQJ9Ryaz9KeabCS2UVXC-42" value="" style="endArrow=classic;html=1;rounded=0;exitX=0.5;exitY=1;exitDx=0;exitDy=0;entryX=0.5;entryY=0;entryDx=0;entryDy=0;" parent="fQJ9Ryaz9KeabCS2UVXC-24" source="fQJ9Ryaz9KeabCS2UVXC-28" target="fQJ9Ryaz9KeabCS2UVXC-29" edge="1">
          <mxGeometry width="50" height="50" relative="1" as="geometry">
            <mxPoint x="310" y="260" as="sourcePoint" />
            <mxPoint x="250" y="200" as="targetPoint" />
          </mxGeometry>
        </mxCell>
        <mxCell id="fQJ9Ryaz9KeabCS2UVXC-43" value="" style="endArrow=classic;html=1;rounded=0;entryX=1;entryY=0.5;entryDx=0;entryDy=0;exitX=0;exitY=0.5;exitDx=0;exitDy=0;" parent="fQJ9Ryaz9KeabCS2UVXC-24" source="fQJ9Ryaz9KeabCS2UVXC-27" target="fQJ9Ryaz9KeabCS2UVXC-28" edge="1">
          <mxGeometry width="50" height="50" relative="1" as="geometry">
            <mxPoint x="330" y="190" as="sourcePoint" />
            <mxPoint x="360" y="210" as="targetPoint" />
          </mxGeometry>
        </mxCell>
        <mxCell id="fQJ9Ryaz9KeabCS2UVXC-45" value="Message type: CompressedImage&lt;div&gt;Topic Name: /image_raw/compressed&lt;/div&gt;" style="edgeLabel;html=1;align=center;verticalAlign=middle;resizable=0;points=[];" parent="fQJ9Ryaz9KeabCS2UVXC-43" vertex="1" connectable="0">
          <mxGeometry x="0.2078" y="9" relative="1" as="geometry">
            <mxPoint x="35" y="-39" as="offset" />
          </mxGeometry>
        </mxCell>
        <mxCell id="fQJ9Ryaz9KeabCS2UVXC-50" value="&lt;span style=&quot;font-size: 11px; background-color: rgb(255, 255, 255);&quot;&gt;Message type: geometry_msgs/Point&lt;/span&gt;&lt;div style=&quot;--tw-scale-x: 1; --tw-scale-y: 1; --tw-pan-x: ; --tw-pan-y: ; --tw-pinch-zoom: ; --tw-scroll-snap-strictness: proximity; --tw-gradient-from-position: ; --tw-gradient-via-position: ; --tw-gradient-to-position: ; --tw-ordinal: ; --tw-slashed-zero: ; --tw-numeric-figure: ; --tw-numeric-spacing: ; --tw-numeric-fraction: ; --tw-ring-inset: ; --tw-ring-offset-width: 0px; --tw-ring-offset-color: #fff; --tw-ring-color: rgb(59 130 246 / .5); --tw-ring-offset-shadow: 0 0 #0000; --tw-ring-shadow: 0 0 #0000; --tw-shadow: 0 0 #0000; --tw-shadow-colored: 0 0 #0000; --tw-blur: ; --tw-brightness: ; --tw-contrast: ; --tw-grayscale: ; --tw-hue-rotate: ; --tw-invert: ; --tw-saturate: ; --tw-sepia: ; --tw-drop-shadow: ; --tw-backdrop-blur: ; --tw-backdrop-brightness: ; --tw-backdrop-contrast: ; --tw-backdrop-grayscale: ; --tw-backdrop-hue-rotate: ; --tw-backdrop-invert: ; --tw-backdrop-opacity: ; --tw-backdrop-saturate: ; --tw-backdrop-sepia: ; font-size: 11px;&quot;&gt;Topic Name: /obj_angle&lt;/div&gt;" style="text;html=1;align=center;verticalAlign=middle;resizable=0;points=[];autosize=1;strokeColor=none;fillColor=none;" parent="fQJ9Ryaz9KeabCS2UVXC-24" vertex="1">
          <mxGeometry x="-20" y="210" width="200" height="40" as="geometry" />
        </mxCell>
        <mxCell id="fQJ9Ryaz9KeabCS2UVXC-51" value="&lt;span style=&quot;--tw-scale-x: 1; --tw-scale-y: 1; --tw-pan-x: ; --tw-pan-y: ; --tw-pinch-zoom: ; --tw-scroll-snap-strictness: proximity; --tw-gradient-from-position: ; --tw-gradient-via-position: ; --tw-gradient-to-position: ; --tw-ordinal: ; --tw-slashed-zero: ; --tw-numeric-figure: ; --tw-numeric-spacing: ; --tw-numeric-fraction: ; --tw-ring-inset: ; --tw-ring-offset-width: 0px; --tw-ring-offset-color: light-dark(#fff, #000000); --tw-ring-color: rgb(59 130 246 / .5); --tw-ring-offset-shadow: 0 0 #0000; --tw-ring-shadow: 0 0 #0000; --tw-shadow: 0 0 #0000; --tw-shadow-colored: 0 0 #0000; --tw-blur: ; --tw-brightness: ; --tw-contrast: ; --tw-grayscale: ; --tw-hue-rotate: ; --tw-invert: ; --tw-saturate: ; --tw-sepia: ; --tw-drop-shadow: ; --tw-backdrop-blur: ; --tw-backdrop-brightness: ; --tw-backdrop-contrast: ; --tw-backdrop-grayscale: ; --tw-backdrop-hue-rotate: ; --tw-backdrop-invert: ; --tw-backdrop-opacity: ; --tw-backdrop-saturate: ; --tw-backdrop-sepia: ; font-size: 11px; background-color: rgb(255, 255, 255);&quot;&gt;Message type: geometry_msgs/Point&lt;/span&gt;&lt;div style=&quot;--tw-scale-x: 1; --tw-scale-y: 1; --tw-pan-x: ; --tw-pan-y: ; --tw-pinch-zoom: ; --tw-scroll-snap-strictness: proximity; --tw-gradient-from-position: ; --tw-gradient-via-position: ; --tw-gradient-to-position: ; --tw-ordinal: ; --tw-slashed-zero: ; --tw-numeric-figure: ; --tw-numeric-spacing: ; --tw-numeric-fraction: ; --tw-ring-inset: ; --tw-ring-offset-width: 0px; --tw-ring-offset-color: light-dark(#fff, #000000); --tw-ring-color: rgb(59 130 246 / .5); --tw-ring-offset-shadow: 0 0 #0000; --tw-ring-shadow: 0 0 #0000; --tw-shadow: 0 0 #0000; --tw-shadow-colored: 0 0 #0000; --tw-blur: ; --tw-brightness: ; --tw-contrast: ; --tw-grayscale: ; --tw-hue-rotate: ; --tw-invert: ; --tw-saturate: ; --tw-sepia: ; --tw-drop-shadow: ; --tw-backdrop-blur: ; --tw-backdrop-brightness: ; --tw-backdrop-contrast: ; --tw-backdrop-grayscale: ; --tw-backdrop-hue-rotate: ; --tw-backdrop-invert: ; --tw-backdrop-opacity: ; --tw-backdrop-saturate: ; --tw-backdrop-sepia: ; font-size: 11px;&quot;&gt;Topic Name: /obj_position&lt;/div&gt;" style="text;html=1;align=center;verticalAlign=middle;resizable=0;points=[];autosize=1;strokeColor=none;fillColor=none;" parent="fQJ9Ryaz9KeabCS2UVXC-24" vertex="1">
          <mxGeometry x="310" y="320" width="200" height="40" as="geometry" />
        </mxCell>
        <mxCell id="fQJ9Ryaz9KeabCS2UVXC-52" value="&lt;span style=&quot;--tw-scale-x: 1; --tw-scale-y: 1; --tw-pan-x: ; --tw-pan-y: ; --tw-pinch-zoom: ; --tw-scroll-snap-strictness: proximity; --tw-gradient-from-position: ; --tw-gradient-via-position: ; --tw-gradient-to-position: ; --tw-ordinal: ; --tw-slashed-zero: ; --tw-numeric-figure: ; --tw-numeric-spacing: ; --tw-numeric-fraction: ; --tw-ring-inset: ; --tw-ring-offset-width: 0px; --tw-ring-offset-color: #fff; --tw-ring-color: rgb(59 130 246 / .5); --tw-ring-offset-shadow: 0 0 #0000; --tw-ring-shadow: 0 0 #0000; --tw-shadow: 0 0 #0000; --tw-shadow-colored: 0 0 #0000; --tw-blur: ; --tw-brightness: ; --tw-contrast: ; --tw-grayscale: ; --tw-hue-rotate: ; --tw-invert: ; --tw-saturate: ; --tw-sepia: ; --tw-drop-shadow: ; --tw-backdrop-blur: ; --tw-backdrop-brightness: ; --tw-backdrop-contrast: ; --tw-backdrop-grayscale: ; --tw-backdrop-hue-rotate: ; --tw-backdrop-invert: ; --tw-backdrop-opacity: ; --tw-backdrop-saturate: ; --tw-backdrop-sepia: ; font-size: 11px; background-color: rgb(255, 255, 255);&quot;&gt;Message type: Twist&lt;/span&gt;&lt;div style=&quot;--tw-scale-x: 1; --tw-scale-y: 1; --tw-pan-x: ; --tw-pan-y: ; --tw-pinch-zoom: ; --tw-scroll-snap-strictness: proximity; --tw-gradient-from-position: ; --tw-gradient-via-position: ; --tw-gradient-to-position: ; --tw-ordinal: ; --tw-slashed-zero: ; --tw-numeric-figure: ; --tw-numeric-spacing: ; --tw-numeric-fraction: ; --tw-ring-inset: ; --tw-ring-offset-width: 0px; --tw-ring-offset-color: #fff; --tw-ring-color: rgb(59 130 246 / .5); --tw-ring-offset-shadow: 0 0 #0000; --tw-ring-shadow: 0 0 #0000; --tw-shadow: 0 0 #0000; --tw-shadow-colored: 0 0 #0000; --tw-blur: ; --tw-brightness: ; --tw-contrast: ; --tw-grayscale: ; --tw-hue-rotate: ; --tw-invert: ; --tw-saturate: ; --tw-sepia: ; --tw-drop-shadow: ; --tw-backdrop-blur: ; --tw-backdrop-brightness: ; --tw-backdrop-contrast: ; --tw-backdrop-grayscale: ; --tw-backdrop-hue-rotate: ; --tw-backdrop-invert: ; --tw-backdrop-opacity: ; --tw-backdrop-saturate: ; --tw-backdrop-sepia: ; font-size: 11px;&quot;&gt;Topic Name: /cmd_vel&lt;/div&gt;" style="text;html=1;align=center;verticalAlign=middle;resizable=0;points=[];autosize=1;strokeColor=none;fillColor=none;" parent="fQJ9Ryaz9KeabCS2UVXC-24" vertex="1">
          <mxGeometry x="650" y="220" width="130" height="40" as="geometry" />
        </mxCell>
        <mxCell id="VBbCjxsJz9FitFtvKGk--1" style="edgeStyle=none;curved=1;rounded=0;orthogonalLoop=1;jettySize=auto;html=1;exitX=0;exitY=1;exitDx=0;exitDy=0;entryX=0.117;entryY=0.19;entryDx=0;entryDy=0;entryPerimeter=0;fontSize=12;startSize=8;endSize=8;" edge="1" parent="fQJ9Ryaz9KeabCS2UVXC-24" source="fQJ9Ryaz9KeabCS2UVXC-27" target="fQJ9Ryaz9KeabCS2UVXC-30">
          <mxGeometry relative="1" as="geometry" />
        </mxCell>
        <mxCell id="VBbCjxsJz9FitFtvKGk--22" value="&lt;span style=&quot;--tw-scale-x: 1; --tw-scale-y: 1; --tw-pan-x: ; --tw-pan-y: ; --tw-pinch-zoom: ; --tw-scroll-snap-strictness: proximity; --tw-gradient-from-position: ; --tw-gradient-via-position: ; --tw-gradient-to-position: ; --tw-ordinal: ; --tw-slashed-zero: ; --tw-numeric-figure: ; --tw-numeric-spacing: ; --tw-numeric-fraction: ; --tw-ring-inset: ; --tw-ring-offset-width: 0px; --tw-ring-offset-color: light-dark(#fff, #000000); --tw-ring-color: rgb(59 130 246 / .5); --tw-ring-offset-shadow: 0 0 #0000; --tw-ring-shadow: 0 0 #0000; --tw-shadow: 0 0 #0000; --tw-shadow-colored: 0 0 #0000; --tw-blur: ; --tw-brightness: ; --tw-contrast: ; --tw-grayscale: ; --tw-hue-rotate: ; --tw-invert: ; --tw-saturate: ; --tw-sepia: ; --tw-drop-shadow: ; --tw-backdrop-blur: ; --tw-backdrop-brightness: ; --tw-backdrop-contrast: ; --tw-backdrop-grayscale: ; --tw-backdrop-hue-rotate: ; --tw-backdrop-invert: ; --tw-backdrop-opacity: ; --tw-backdrop-saturate: ; --tw-backdrop-sepia: ; font-size: 11px; background-color: light-dark(rgb(255, 255, 255), rgb(18, 18, 18));&quot;&gt;Message type: nav_msgs/Odometry&lt;/span&gt;&lt;div style=&quot;--tw-scale-x: 1; --tw-scale-y: 1; --tw-pan-x: ; --tw-pan-y: ; --tw-pinch-zoom: ; --tw-scroll-snap-strictness: proximity; --tw-gradient-from-position: ; --tw-gradient-via-position: ; --tw-gradient-to-position: ; --tw-ordinal: ; --tw-slashed-zero: ; --tw-numeric-figure: ; --tw-numeric-spacing: ; --tw-numeric-fraction: ; --tw-ring-inset: ; --tw-ring-offset-width: 0px; --tw-ring-offset-color: light-dark(#fff, #000000); --tw-ring-color: rgb(59 130 246 / .5); --tw-ring-offset-shadow: 0 0 #0000; --tw-ring-shadow: 0 0 #0000; --tw-shadow: 0 0 #0000; --tw-shadow-colored: 0 0 #0000; --tw-blur: ; --tw-brightness: ; --tw-contrast: ; --tw-grayscale: ; --tw-hue-rotate: ; --tw-invert: ; --tw-saturate: ; --tw-sepia: ; --tw-drop-shadow: ; --tw-backdrop-blur: ; --tw-backdrop-brightness: ; --tw-backdrop-contrast: ; --tw-backdrop-grayscale: ; --tw-backdrop-hue-rotate: ; --tw-backdrop-invert: ; --tw-backdrop-opacity: ; --tw-backdrop-saturate: ; --tw-backdrop-sepia: ; font-size: 11px;&quot;&gt;Topic Name: /odom&lt;/div&gt;" style="text;whiteSpace=wrap;html=1;" vertex="1" parent="fQJ9Ryaz9KeabCS2UVXC-24">
          <mxGeometry x="370" y="230" width="180" height="50" as="geometry" />
        </mxCell>
        <mxCell id="fQJ9Ryaz9KeabCS2UVXC-48" value="&lt;span style=&quot;font-size: 11px; background-color: rgb(255, 255, 255);&quot;&gt;Message type: CompressedImage&lt;/span&gt;&lt;div style=&quot;--tw-scale-x: 1; --tw-scale-y: 1; --tw-pan-x: ; --tw-pan-y: ; --tw-pinch-zoom: ; --tw-scroll-snap-strictness: proximity; --tw-gradient-from-position: ; --tw-gradient-via-position: ; --tw-gradient-to-position: ; --tw-ordinal: ; --tw-slashed-zero: ; --tw-numeric-figure: ; --tw-numeric-spacing: ; --tw-numeric-fraction: ; --tw-ring-inset: ; --tw-ring-offset-width: 0px; --tw-ring-offset-color: #fff; --tw-ring-color: rgb(59 130 246 / .5); --tw-ring-offset-shadow: 0 0 #0000; --tw-ring-shadow: 0 0 #0000; --tw-shadow: 0 0 #0000; --tw-shadow-colored: 0 0 #0000; --tw-blur: ; --tw-brightness: ; --tw-contrast: ; --tw-grayscale: ; --tw-hue-rotate: ; --tw-invert: ; --tw-saturate: ; --tw-sepia: ; --tw-drop-shadow: ; --tw-backdrop-blur: ; --tw-backdrop-brightness: ; --tw-backdrop-contrast: ; --tw-backdrop-grayscale: ; --tw-backdrop-hue-rotate: ; --tw-backdrop-invert: ; --tw-backdrop-opacity: ; --tw-backdrop-saturate: ; --tw-backdrop-sepia: ; font-size: 11px;&quot;&gt;Topic Name: /obj_finder/compressed&lt;/div&gt;" style="text;html=1;align=center;verticalAlign=middle;resizable=0;points=[];autosize=1;strokeColor=none;fillColor=none;" parent="1" vertex="1">
          <mxGeometry x="500" y="270" width="200" height="40" as="geometry" />
        </mxCell>
        <mxCell id="fQJ9Ryaz9KeabCS2UVXC-49" value="" style="endArrow=classic;html=1;rounded=0;exitX=0;exitY=0.5;exitDx=0;exitDy=0;entryX=1;entryY=0.5;entryDx=0;entryDy=0;" parent="1" source="fQJ9Ryaz9KeabCS2UVXC-28" target="fQJ9Ryaz9KeabCS2UVXC-25" edge="1">
          <mxGeometry width="50" height="50" relative="1" as="geometry">
            <mxPoint x="370" y="410" as="sourcePoint" />
            <mxPoint x="420" y="360" as="targetPoint" />
          </mxGeometry>
        </mxCell>
      </root>
    </mxGraphModel>
  </diagram>
</mxfile>
